<svg aria-roledescription="gitGraph" role="graphics-document document" viewBox="-118.248046875 -34.70000076293945 476.248046875 360.7115173339844" style="max-width: 476.248046875px;" xmlns="http://www.w3.org/2000/svg" width="100%" id="export-svg"><style xmlns="http://www.w3.org/1999/xhtml">@import url("https://cdnjs.cloudflare.com/ajax/libs/font-awesome/6.2.0/css/all.min.css"); p {margin: 0;}</style><style>#export-svg{font-family:"trebuchet ms",verdana,arial,sans-serif;font-size:14px;fill:#333;}#export-svg .error-icon{fill:#ffffff;}#export-svg .error-text{fill:#000000;stroke:#000000;}#export-svg .edge-thickness-normal{stroke-width:1px;}#export-svg .edge-thickness-thick{stroke-width:3.5px;}#export-svg .edge-pattern-solid{stroke-dasharray:0;}#export-svg .edge-thickness-invisible{stroke-width:0;fill:none;}#export-svg .edge-pattern-dashed{stroke-dasharray:3;}#export-svg .edge-pattern-dotted{stroke-dasharray:2;}#export-svg .marker{fill:#000000;stroke:#000000;}#export-svg .marker.cross{stroke:#000000;}#export-svg svg{font-family:"trebuchet ms",verdana,arial,sans-serif;font-size:14px;}#export-svg p{margin:0;}#export-svg .commit-id,#export-svg .commit-msg,#export-svg .branch-label{fill:lightgrey;color:lightgrey;font-family:'trebuchet ms',verdana,arial,sans-serif;font-family:var(--mermaid-font-family);}#export-svg .branch-label0{fill:#333;}#export-svg .commit0{stroke:hsl(240, 90%, 71.0784313725%);fill:hsl(240, 90%, 71.0784313725%);}#export-svg .commit-highlight0{stroke:rgb(140.1250000002, 140.1250000002, 7.375);fill:rgb(140.1250000002, 140.1250000002, 7.375);}#export-svg .label0{fill:hsl(240, 90%, 71.0784313725%);}#export-svg .arrow0{stroke:hsl(240, 90%, 71.0784313725%);}#export-svg .branch-label1{fill:#333;}#export-svg .commit1{stroke:hsl(240, 22.2222222222%, 67.9411764706%);fill:hsl(240, 22.2222222222%, 67.9411764706%);}#export-svg .commit-highlight1{stroke:rgb(99.9166666666, 99.9166666666, 63.5833333333);fill:rgb(99.9166666666, 99.9166666666, 63.5833333333);}#export-svg .label1{fill:hsl(240, 22.2222222222%, 67.9411764706%);}#export-svg .arrow1{stroke:hsl(240, 22.2222222222%, 67.9411764706%);}#export-svg .branch-label2{fill:#333;}#export-svg .commit2{stroke:hsl(60, 90%, 75%);fill:hsl(60, 90%, 75%);}#export-svg .commit-highlight2{stroke:rgb(6.375, 6.375, 121.125);fill:rgb(6.375, 6.375, 121.125);}#export-svg .label2{fill:hsl(60, 90%, 75%);}#export-svg .arrow2{stroke:hsl(60, 90%, 75%);}#export-svg .branch-label3{fill:#333;}#export-svg .commit3{stroke:hsl(210, 90%, 71.0784313725%);fill:hsl(210, 90%, 71.0784313725%);}#export-svg .commit-highlight3{stroke:rgb(140.1250000002, 73.7500000001, 7.375);fill:rgb(140.1250000002, 73.7500000001, 7.375);}#export-svg .label3{fill:hsl(210, 90%, 71.0784313725%);}#export-svg .arrow3{stroke:hsl(210, 90%, 71.0784313725%);}#export-svg .branch-label4{fill:#333;}#export-svg .commit4{stroke:hsl(180, 90%, 71.0784313725%);fill:hsl(180, 90%, 71.0784313725%);}#export-svg .commit-highlight4{stroke:rgb(140.1250000002, 7.375, 7.375);fill:rgb(140.1250000002, 7.375, 7.375);}#export-svg .label4{fill:hsl(180, 90%, 71.0784313725%);}#export-svg .arrow4{stroke:hsl(180, 90%, 71.0784313725%);}#export-svg .branch-label5{fill:#333;}#export-svg .commit5{stroke:hsl(150, 90%, 71.0784313725%);fill:hsl(150, 90%, 71.0784313725%);}#export-svg .commit-highlight5{stroke:rgb(140.1250000002, 7.375, 73.7500000001);fill:rgb(140.1250000002, 7.375, 73.7500000001);}#export-svg .label5{fill:hsl(150, 90%, 71.0784313725%);}#export-svg .arrow5{stroke:hsl(150, 90%, 71.0784313725%);}#export-svg .branch-label6{fill:#333;}#export-svg .commit6{stroke:hsl(300, 90%, 71.0784313725%);fill:hsl(300, 90%, 71.0784313725%);}#export-svg .commit-highlight6{stroke:rgb(7.375, 140.1250000002, 7.375);fill:rgb(7.375, 140.1250000002, 7.375);}#export-svg .label6{fill:hsl(300, 90%, 71.0784313725%);}#export-svg .arrow6{stroke:hsl(300, 90%, 71.0784313725%);}#export-svg .branch-label7{fill:#333;}#export-svg .commit7{stroke:hsl(0, 90%, 71.0784313725%);fill:hsl(0, 90%, 71.0784313725%);}#export-svg .commit-highlight7{stroke:rgb(7.375, 140.1250000002, 140.1250000002);fill:rgb(7.375, 140.1250000002, 140.1250000002);}#export-svg .label7{fill:hsl(0, 90%, 71.0784313725%);}#export-svg .arrow7{stroke:hsl(0, 90%, 71.0784313725%);}#export-svg .branch{stroke-width:1;stroke:#000000;stroke-dasharray:2;}#export-svg .commit-label{font-size:10px;fill:#333333;}#export-svg .commit-label-bkg{font-size:10px;fill:hsl(-120, 0%, 80%);opacity:0.5;}#export-svg .tag-label{font-size:10px;fill:#333;}#export-svg .tag-label-bkg{fill:#cccccc;stroke:hsl(0, 0%, 70%);}#export-svg .tag-hole{fill:#333;}#export-svg .commit-merge{stroke:#cccccc;fill:#cccccc;}#export-svg .commit-reverse{stroke:#cccccc;fill:#cccccc;stroke-width:3;}#export-svg .commit-highlight-inner{stroke:#cccccc;fill:#cccccc;}#export-svg .arrow{stroke-width:8;stroke-linecap:round;fill:none;}#export-svg .gitTitleText{text-anchor:middle;font-size:18px;fill:#333;}#export-svg .node .neo-node{stroke:#000000;}#export-svg [data-look="neo"].node rect,#export-svg [data-look="neo"].cluster rect,#export-svg [data-look="neo"].node polygon{stroke:url(#export-svg-gradient);filter:drop-shadow( 0px 1px 2px rgba(0, 0, 0, 0.25));}#export-svg [data-look="neo"].node rect,#export-svg [data-look="neo"].node polygon,#export-svg [data-look="neo"].node path{stroke:url(#export-svg-gradient);filter:drop-shadow( 0px 1px 2px rgba(0, 0, 0, 0.25));}#export-svg [data-look="neo"].node .neo-line path{stroke:hsl(0, 0%, 70%);filter:none;}#export-svg [data-look="neo"].node circle{stroke:url(#export-svg-gradient);filter:drop-shadow( 0px 1px 2px rgba(0, 0, 0, 0.25));}#export-svg [data-look="neo"].node circle .state-start{fill:#000000;}#export-svg [data-look="neo"].statediagram-cluster rect{fill:#ffffff;stroke:url(#export-svg-gradient);stroke-width:1px;}#export-svg [data-look="neo"].icon-shape .icon{fill:url(#export-svg-gradient);filter:drop-shadow( 0px 1px 2px rgba(0, 0, 0, 0.25));}#export-svg [data-look="neo"].icon-shape .icon-neo path{stroke:url(#export-svg-gradient);filter:drop-shadow( 0px 1px 2px rgba(0, 0, 0, 0.25));}#export-svg :root{--mermaid-font-family:"trebuchet ms",verdana,arial,sans-serif;}</style><g/><g class="commit-bullets"/><g class="commit-labels"/><g><line class="branch branch0" y2="0" x2="350" y1="0" x1="0"/><rect transform="translate(-19, -8)" height="20" width="48.55859375" y="0" x="-64.55859375" ry="4" rx="4" class="branchLabelBkg label0"/><g class="branchLabel"><g transform="translate(-74.55859375, -9)" class="label branch-label0"><text><tspan class="row" x="0" dy="1em" xml:space="preserve">main</tspan></text></g></g><line class="branch branch1" y2="90" x2="350" y1="90" x1="0"/><rect transform="translate(-19, 82)" height="20" width="75.046875" y="0" x="-91.046875" ry="4" rx="4" class="branchLabelBkg label1"/><g class="branchLabel"><g transform="translate(-101.046875, 81)" class="label branch-label1"><text><tspan class="row" x="0" dy="1em" xml:space="preserve">feature-1</tspan></text></g></g><line class="branch branch2" y2="180" x2="350" y1="180" x1="0"/><rect transform="translate(-19, 172)" height="20" width="75.248046875" y="0" x="-91.248046875" ry="4" rx="4" class="branchLabelBkg label2"/><g class="branchLabel"><g transform="translate(-101.248046875, 171)" class="label branch-label2"><text><tspan class="row" x="0" dy="1em" xml:space="preserve">feature-2</tspan></text></g></g><line class="branch branch3" y2="270" x2="350" y1="270" x1="0"/><rect transform="translate(-19, 262)" height="20" width="63.921875" y="0" x="-79.921875" ry="4" rx="4" class="branchLabelBkg label3"/><g class="branchLabel"><g transform="translate(-89.921875, 261)" class="label branch-label3"><text><tspan class="row" x="0" dy="1em" xml:space="preserve">hotfix-1</tspan></text></g></g></g><g class="commit-arrows"><path class="arrow arrow1" d="M 10 0 L 10 70 A 20 20, 0, 0, 0, 30 90 L 60 90"/><path class="arrow arrow0" d="M 10 0 L 110 0"/><path class="arrow arrow1" d="M 60 90 L 90 90 A 20 20, 0, 0, 0, 110 70 L 110 0"/><path class="arrow arrow2" d="M 110 0 L 110 160 A 20 20, 0, 0, 0, 130 180 L 160 180"/><path class="arrow arrow0" d="M 110 0 L 210 0"/><path class="arrow arrow2" d="M 160 180 L 190 180 A 20 20, 0, 0, 0, 210 160 L 210 0"/><path class="arrow arrow3" d="M 210 0 L 210 250 A 20 20, 0, 0, 0, 230 270 L 260 270"/><path class="arrow arrow0" d="M 210 0 L 310 0"/><path class="arrow arrow3" d="M 260 270 L 290 270 A 20 20, 0, 0, 0, 310 250 L 310 0"/></g><g class="commit-bullets"><circle class="commit Initial Commit commit0" r="10" cy="0" cx="10"/><circle class="commit Feature 1 Development commit1" r="10" cy="90" cx="60"/><circle class="commit 2-4756ff7 commit0" r="9" cy="0" cx="110"/><circle class="commit commit-merge 2-4756ff7 commit0" r="6" cy="0" cx="110"/><circle class="commit Feature 2 Development commit2" r="10" cy="180" cx="160"/><circle class="commit 4-5f32e45 commit0" r="9" cy="0" cx="210"/><circle class="commit commit-merge 4-5f32e45 commit0" r="6" cy="0" cx="210"/><circle class="commit Hotfix 1 commit3" r="10" cy="270" cx="260"/><circle class="commit 6-cd13f41 commit0" r="9" cy="0" cx="310"/><circle class="commit commit-merge 6-cd13f41 commit0" r="6" cy="0" cx="310"/></g><g class="commit-labels"><g transform="translate(-34.39947265625, 30.66794921875) rotate(-45, 0, 0)"><rect height="15" width="64.7880859375" y="13.5" x="-22.39404296875" class="commit-label-bkg"/><text class="commit-label" y="25" x="-20.39404296875">Initial Commit</text></g><g transform="translate(-51.09498046875, 45.606035156249995) rotate(-45, 50, 90)"><rect height="15" width="108.7236328125" y="103.5" x="5.63818359375" class="commit-label-bkg"/><text class="commit-label" y="115" x="7.63818359375">Feature 1 Development</text></g><polygon points="88.046875,-17.2  &#10;      88.046875,-21.2&#10;      96.046875,-26.7&#10;      123.953125,-26.7&#10;      123.953125,-11.7&#10;      96.046875,-11.7" class="tag-label-bkg"/><circle class="tag-hole" r="1.5" cx="92.046875" cy="-19.2"/><text x="100.046875" class="tag-label" y="-16">v1.1</text><g transform="translate(-51.09498046875, 45.606035156249995) rotate(-45, 150, 180)"><rect height="15" width="108.7236328125" y="193.5" x="105.63818359375" class="commit-label-bkg"/><text class="commit-label" y="205" x="107.63818359375">Feature 2 Development</text></g><polygon points="187.830078125,-17.2  &#10;      187.830078125,-21.2&#10;      195.830078125,-26.7&#10;      224.169921875,-26.7&#10;      224.169921875,-11.7&#10;      195.830078125,-11.7" class="tag-label-bkg"/><circle class="tag-hole" r="1.5" cx="191.830078125" cy="-19.2"/><text x="199.830078125" class="tag-label" y="-16">v1.2</text><g transform="translate(-24.184375, 21.528125) rotate(-45, 250, 270)"><rect height="15" width="37.90625" y="283.5" x="241.046875" class="commit-label-bkg"/><text class="commit-label" y="295" x="243.046875">Hotfix 1</text></g><polygon points="283.875,-17.2  &#10;      283.875,-21.2&#10;      291.875,-26.7&#10;      328.125,-26.7&#10;      328.125,-11.7&#10;      291.875,-11.7" class="tag-label-bkg"/><circle class="tag-hole" r="1.5" cx="287.875" cy="-19.2"/><text x="295.875" class="tag-label" y="-16">v1.2.1</text></g></svg>