<svg aria-roledescription="gitGraph" role="graphics-document document" viewBox="-118.7998046875 -34.70000076293945 826.7998046875 553.6201782226562" style="max-width: 826.7998046875px;" xmlns="http://www.w3.org/2000/svg" width="100%" id="export-svg"><style xmlns="http://www.w3.org/1999/xhtml">@import url("https://cdnjs.cloudflare.com/ajax/libs/font-awesome/6.2.0/css/all.min.css"); p {margin: 0;}</style><style>#export-svg{font-family:"trebuchet ms",verdana,arial,sans-serif;font-size:14px;fill:#333;}#export-svg .error-icon{fill:#ffffff;}#export-svg .error-text{fill:#000000;stroke:#000000;}#export-svg .edge-thickness-normal{stroke-width:1px;}#export-svg .edge-thickness-thick{stroke-width:3.5px;}#export-svg .edge-pattern-solid{stroke-dasharray:0;}#export-svg .edge-thickness-invisible{stroke-width:0;fill:none;}#export-svg .edge-pattern-dashed{stroke-dasharray:3;}#export-svg .edge-pattern-dotted{stroke-dasharray:2;}#export-svg .marker{fill:#000000;stroke:#000000;}#export-svg .marker.cross{stroke:#000000;}#export-svg svg{font-family:"trebuchet ms",verdana,arial,sans-serif;font-size:14px;}#export-svg p{margin:0;}#export-svg .commit-id,#export-svg .commit-msg,#export-svg .branch-label{fill:lightgrey;color:lightgrey;font-family:'trebuchet ms',verdana,arial,sans-serif;font-family:var(--mermaid-font-family);}#export-svg .branch-label0{fill:#333;}#export-svg .commit0{stroke:hsl(240, 90%, 71.0784313725%);fill:hsl(240, 90%, 71.0784313725%);}#export-svg .commit-highlight0{stroke:rgb(140.1250000002, 140.1250000002, 7.375);fill:rgb(140.1250000002, 140.1250000002, 7.375);}#export-svg .label0{fill:hsl(240, 90%, 71.0784313725%);}#export-svg .arrow0{stroke:hsl(240, 90%, 71.0784313725%);}#export-svg .branch-label1{fill:#333;}#export-svg .commit1{stroke:hsl(240, 22.2222222222%, 67.9411764706%);fill:hsl(240, 22.2222222222%, 67.9411764706%);}#export-svg .commit-highlight1{stroke:rgb(99.9166666666, 99.9166666666, 63.5833333333);fill:rgb(99.9166666666, 99.9166666666, 63.5833333333);}#export-svg .label1{fill:hsl(240, 22.2222222222%, 67.9411764706%);}#export-svg .arrow1{stroke:hsl(240, 22.2222222222%, 67.9411764706%);}#export-svg .branch-label2{fill:#333;}#export-svg .commit2{stroke:hsl(60, 90%, 75%);fill:hsl(60, 90%, 75%);}#export-svg .commit-highlight2{stroke:rgb(6.375, 6.375, 121.125);fill:rgb(6.375, 6.375, 121.125);}#export-svg .label2{fill:hsl(60, 90%, 75%);}#export-svg .arrow2{stroke:hsl(60, 90%, 75%);}#export-svg .branch-label3{fill:#333;}#export-svg .commit3{stroke:hsl(210, 90%, 71.0784313725%);fill:hsl(210, 90%, 71.0784313725%);}#export-svg .commit-highlight3{stroke:rgb(140.1250000002, 73.7500000001, 7.375);fill:rgb(140.1250000002, 73.7500000001, 7.375);}#export-svg .label3{fill:hsl(210, 90%, 71.0784313725%);}#export-svg .arrow3{stroke:hsl(210, 90%, 71.0784313725%);}#export-svg .branch-label4{fill:#333;}#export-svg .commit4{stroke:hsl(180, 90%, 71.0784313725%);fill:hsl(180, 90%, 71.0784313725%);}#export-svg .commit-highlight4{stroke:rgb(140.1250000002, 7.375, 7.375);fill:rgb(140.1250000002, 7.375, 7.375);}#export-svg .label4{fill:hsl(180, 90%, 71.0784313725%);}#export-svg .arrow4{stroke:hsl(180, 90%, 71.0784313725%);}#export-svg .branch-label5{fill:#333;}#export-svg .commit5{stroke:hsl(150, 90%, 71.0784313725%);fill:hsl(150, 90%, 71.0784313725%);}#export-svg .commit-highlight5{stroke:rgb(140.1250000002, 7.375, 73.7500000001);fill:rgb(140.1250000002, 7.375, 73.7500000001);}#export-svg .label5{fill:hsl(150, 90%, 71.0784313725%);}#export-svg .arrow5{stroke:hsl(150, 90%, 71.0784313725%);}#export-svg .branch-label6{fill:#333;}#export-svg .commit6{stroke:hsl(300, 90%, 71.0784313725%);fill:hsl(300, 90%, 71.0784313725%);}#export-svg .commit-highlight6{stroke:rgb(7.375, 140.1250000002, 7.375);fill:rgb(7.375, 140.1250000002, 7.375);}#export-svg .label6{fill:hsl(300, 90%, 71.0784313725%);}#export-svg .arrow6{stroke:hsl(300, 90%, 71.0784313725%);}#export-svg .branch-label7{fill:#333;}#export-svg .commit7{stroke:hsl(0, 90%, 71.0784313725%);fill:hsl(0, 90%, 71.0784313725%);}#export-svg .commit-highlight7{stroke:rgb(7.375, 140.1250000002, 140.1250000002);fill:rgb(7.375, 140.1250000002, 140.1250000002);}#export-svg .label7{fill:hsl(0, 90%, 71.0784313725%);}#export-svg .arrow7{stroke:hsl(0, 90%, 71.0784313725%);}#export-svg .branch{stroke-width:1;stroke:#000000;stroke-dasharray:2;}#export-svg .commit-label{font-size:10px;fill:#333333;}#export-svg .commit-label-bkg{font-size:10px;fill:hsl(-120, 0%, 80%);opacity:0.5;}#export-svg .tag-label{font-size:10px;fill:#333;}#export-svg .tag-label-bkg{fill:#cccccc;stroke:hsl(0, 0%, 70%);}#export-svg .tag-hole{fill:#333;}#export-svg .commit-merge{stroke:#cccccc;fill:#cccccc;}#export-svg .commit-reverse{stroke:#cccccc;fill:#cccccc;stroke-width:3;}#export-svg .commit-highlight-inner{stroke:#cccccc;fill:#cccccc;}#export-svg .arrow{stroke-width:8;stroke-linecap:round;fill:none;}#export-svg .gitTitleText{text-anchor:middle;font-size:18px;fill:#333;}#export-svg .node .neo-node{stroke:#000000;}#export-svg [data-look="neo"].node rect,#export-svg [data-look="neo"].cluster rect,#export-svg [data-look="neo"].node polygon{stroke:url(#export-svg-gradient);filter:drop-shadow( 0px 1px 2px rgba(0, 0, 0, 0.25));}#export-svg [data-look="neo"].node rect,#export-svg [data-look="neo"].node polygon,#export-svg [data-look="neo"].node path{stroke:url(#export-svg-gradient);filter:drop-shadow( 0px 1px 2px rgba(0, 0, 0, 0.25));}#export-svg [data-look="neo"].node .neo-line path{stroke:hsl(0, 0%, 70%);filter:none;}#export-svg [data-look="neo"].node circle{stroke:url(#export-svg-gradient);filter:drop-shadow( 0px 1px 2px rgba(0, 0, 0, 0.25));}#export-svg [data-look="neo"].node circle .state-start{fill:#000000;}#export-svg [data-look="neo"].statediagram-cluster rect{fill:#ffffff;stroke:url(#export-svg-gradient);stroke-width:1px;}#export-svg [data-look="neo"].icon-shape .icon{fill:url(#export-svg-gradient);filter:drop-shadow( 0px 1px 2px rgba(0, 0, 0, 0.25));}#export-svg [data-look="neo"].icon-shape .icon-neo path{stroke:url(#export-svg-gradient);filter:drop-shadow( 0px 1px 2px rgba(0, 0, 0, 0.25));}#export-svg :root{--mermaid-font-family:"trebuchet ms",verdana,arial,sans-serif;}</style><g/><g class="commit-bullets"/><g class="commit-labels"/><g><line class="branch branch0" y2="0" x2="700" y1="0" x1="0"/><rect transform="translate(-19, -8)" height="20" width="48.55859375" y="0" x="-64.55859375" ry="4" rx="4" class="branchLabelBkg label0"/><g class="branchLabel"><g transform="translate(-74.55859375, -9)" class="label branch-label0"><text><tspan class="row" x="0" dy="1em" xml:space="preserve">main</tspan></text></g></g><line class="branch branch1" y2="90" x2="700" y1="90" x1="0"/><rect transform="translate(-19, 82)" height="20" width="41.572265625" y="0" x="-57.572265625" ry="4" rx="4" class="branchLabelBkg label1"/><g class="branchLabel"><g transform="translate(-67.572265625, 81)" class="label branch-label1"><text><tspan class="row" x="0" dy="1em" xml:space="preserve">dev</tspan></text></g></g><line class="branch branch2" y2="180" x2="700" y1="180" x1="0"/><rect transform="translate(-19, 172)" height="20" width="75.59375" y="0" x="-91.59375" ry="4" rx="4" class="branchLabelBkg label2"/><g class="branchLabel"><g transform="translate(-101.59375, 171)" class="label branch-label2"><text><tspan class="row" x="0" dy="1em" xml:space="preserve">sprint1/f1</tspan></text></g></g><line class="branch branch3" y2="270" x2="700" y1="270" x1="0"/><rect transform="translate(-19, 262)" height="20" width="75.7998046875" y="0" x="-91.7998046875" ry="4" rx="4" class="branchLabelBkg label3"/><g class="branchLabel"><g transform="translate(-101.7998046875, 261)" class="label branch-label3"><text><tspan class="row" x="0" dy="1em" xml:space="preserve">sprint1/f2</tspan></text></g></g><line class="branch branch4" y2="360" x2="700" y1="360" x1="0"/><rect transform="translate(-19, 352)" height="20" width="75.59375" y="0" x="-91.59375" ry="4" rx="4" class="branchLabelBkg label4"/><g class="branchLabel"><g transform="translate(-101.59375, 351)" class="label branch-label4"><text><tspan class="row" x="0" dy="1em" xml:space="preserve">sprint2/f1</tspan></text></g></g><line class="branch branch5" y2="450" x2="700" y1="450" x1="0"/><rect transform="translate(-19, 442)" height="20" width="75.7998046875" y="0" x="-91.7998046875" ry="4" rx="4" class="branchLabelBkg label5"/><g class="branchLabel"><g transform="translate(-101.7998046875, 441)" class="label branch-label5"><text><tspan class="row" x="0" dy="1em" xml:space="preserve">sprint2/f2</tspan></text></g></g></g><g class="commit-arrows"><path class="arrow arrow1" d="M 10 0 L 10 70 A 20 20, 0, 0, 0, 30 90 L 60 90"/><path class="arrow arrow2" d="M 60 90 L 60 160 A 20 20, 0, 0, 0, 80 180 L 110 180"/><path class="arrow arrow1" d="M 60 90 L 160 90"/><path class="arrow arrow2" d="M 110 180 L 140 180 A 20 20, 0, 0, 0, 160 160 L 160 90"/><path class="arrow arrow3" d="M 60 90 L 60 250 A 20 20, 0, 0, 0, 80 270 L 210 270"/><path class="arrow arrow3" d="M 210 270 L 260 270"/><path class="arrow arrow1" d="M 160 90 L 310 90"/><path class="arrow arrow3" d="M 260 270 L 290 270 A 20 20, 0, 0, 0, 310 250 L 310 90"/><path class="arrow arrow0" d="M 10 0 L 360 0"/><path class="arrow arrow1" d="M 310 90 L 340 90 A 20 20, 0, 0, 0, 360 70 L 360 0"/><path class="arrow arrow4" d="M 310 90 L 310 340 A 20 20, 0, 0, 0, 330 360 L 410 360"/><path class="arrow arrow4" d="M 410 360 L 460 360"/><path class="arrow arrow1" d="M 310 90 L 510 90"/><path class="arrow arrow4" d="M 460 360 L 490 360 A 20 20, 0, 0, 0, 510 340 L 510 90"/><path class="arrow arrow5" d="M 510 90 L 510 430 A 20 20, 0, 0, 0, 530 450 L 560 450"/><path class="arrow arrow1" d="M 510 90 L 610 90"/><path class="arrow arrow5" d="M 560 450 L 590 450 A 20 20, 0, 0, 0, 610 430 L 610 90"/><path class="arrow arrow0" d="M 360 0 L 660 0"/><path class="arrow arrow1" d="M 610 90 L 640 90 A 20 20, 0, 0, 0, 660 70 L 660 0"/></g><g class="commit-bullets"><circle class="commit 0-62da4e9 commit0" r="10" cy="0" cx="10"/><circle class="commit 1-ca2aacb commit1" r="10" cy="90" cx="60"/><circle class="commit 2-640ff41 commit2" r="10" cy="180" cx="110"/><circle class="commit 3-2223b23 commit1" r="9" cy="90" cx="160"/><circle class="commit commit-merge 3-2223b23 commit1" r="6" cy="90" cx="160"/><circle class="commit 4-04acfd1 commit3" r="10" cy="270" cx="210"/><circle class="commit 5-c0038dd commit3" r="10" cy="270" cx="260"/><circle class="commit 6-9519db1 commit1" r="9" cy="90" cx="310"/><circle class="commit commit-merge 6-9519db1 commit1" r="6" cy="90" cx="310"/><circle class="commit 7-7a51c8f commit0" r="9" cy="0" cx="360"/><circle class="commit commit-merge 7-7a51c8f commit0" r="6" cy="0" cx="360"/><circle class="commit 8-a66a647 commit4" r="10" cy="360" cx="410"/><circle class="commit 9-20ed772 commit4" r="10" cy="360" cx="460"/><circle class="commit 10-5a0055c commit1" r="9" cy="90" cx="510"/><circle class="commit commit-merge 10-5a0055c commit1" r="6" cy="90" cx="510"/><circle class="commit 11-65ecaeb commit5" r="10" cy="450" cx="560"/><circle class="commit 12-c546a3b commit1" r="9" cy="90" cx="610"/><circle class="commit commit-merge 12-c546a3b commit1" r="6" cy="90" cx="610"/><circle class="commit 13-4fff79b commit0" r="9" cy="0" cx="660"/><circle class="commit commit-merge 13-4fff79b commit0" r="6" cy="0" cx="660"/></g><g class="commit-labels"><g transform="translate(-29.639082031250002, 26.40865234375) rotate(-45, 0, 0)"><rect height="15" width="52.2607421875" y="13.5" x="-16.13037109375" class="commit-label-bkg"/><text class="commit-label" y="25" x="-14.13037109375">0-62da4e9</text></g><g transform="translate(-29.212324218750002, 26.02681640625) rotate(-45, 50, 90)"><rect height="15" width="51.1376953125" y="103.5" x="34.43115234375" class="commit-label-bkg"/><text class="commit-label" y="115" x="36.43115234375">1-ca2aacb</text></g><g transform="translate(-27.2896875, 24.3065625) rotate(-45, 100, 180)"><rect height="15" width="46.078125" y="193.5" x="86.9609375" class="commit-label-bkg"/><text class="commit-label" y="205" x="88.9609375">2-640ff41</text></g><g transform="translate(-28.2040625, 25.1246875) rotate(-45, 200, 270)"><rect height="15" width="48.484375" y="283.5" x="185.7578125" class="commit-label-bkg"/><text class="commit-label" y="295" x="187.7578125">4-04acfd1</text></g><g transform="translate(-29.425703125000002, 26.217734375) rotate(-45, 250, 270)"><rect height="15" width="51.69921875" y="283.5" x="234.150390625" class="commit-label-bkg"/><text class="commit-label" y="295" x="236.150390625">5-c0038dd</text></g><polygon points="325.31787109375,-17.2  &#10;      325.31787109375,-21.2&#10;      333.31787109375,-26.7&#10;      386.68212890625,-26.7&#10;      386.68212890625,-11.7&#10;      333.31787109375,-11.7" class="tag-label-bkg"/><circle class="tag-hole" r="1.5" cx="329.31787109375" cy="-19.2"/><text x="337.31787109375" class="tag-label" y="-16">v2025.1.0</text><g transform="translate(-29.639082031250002, 26.40865234375) rotate(-45, 400, 360)"><rect height="15" width="52.2607421875" y="373.5" x="383.86962890625" class="commit-label-bkg"/><text class="commit-label" y="385" x="385.86962890625">8-a66a647</text></g><g transform="translate(-29.639082031250002, 26.40865234375) rotate(-45, 450, 360)"><rect height="15" width="52.2607421875" y="373.5" x="433.86962890625" class="commit-label-bkg"/><text class="commit-label" y="385" x="435.86962890625">9-20ed772</text></g><g transform="translate(-31.25705078125, 27.85630859375) rotate(-45, 550, 450)"><rect height="15" width="56.5185546875" y="463.5" x="531.74072265625" class="commit-label-bkg"/><text class="commit-label" y="475" x="533.74072265625">11-65ecaeb</text></g><polygon points="625.31787109375,-17.2  &#10;      625.31787109375,-21.2&#10;      633.31787109375,-26.7&#10;      686.68212890625,-26.7&#10;      686.68212890625,-11.7&#10;      633.31787109375,-11.7" class="tag-label-bkg"/><circle class="tag-hole" r="1.5" cx="629.31787109375" cy="-19.2"/><text x="637.31787109375" class="tag-label" y="-16">v2025.2.0</text></g></svg>